<svg id="mermaid-diagram" width="100%" xmlns="http://www.w3.org/2000/svg" style="max-width: 1012.59px; background: white;" viewBox="0 0 1012.585693359375 474" role="graphics-document document" aria-roledescription="er"><style>#mermaid-diagram{font-family:"trebuchet ms",verdana,arial,sans-serif;font-size:16px;fill:#333;}#mermaid-diagram .error-icon{fill:#552222;}#mermaid-diagram .error-text{fill:#552222;stroke:#552222;}#mermaid-diagram .edge-thickness-normal{stroke-width:1px;}#mermaid-diagram .edge-thickness-thick{stroke-width:3.5px;}#mermaid-diagram .edge-pattern-solid{stroke-dasharray:0;}#mermaid-diagram .edge-thickness-invisible{stroke-width:0;fill:none;}#mermaid-diagram .edge-pattern-dashed{stroke-dasharray:3;}#mermaid-diagram .edge-pattern-dotted{stroke-dasharray:2;}#mermaid-diagram .marker{fill:#333333;stroke:#333333;}#mermaid-diagram .marker.cross{stroke:#333333;}#mermaid-diagram svg{font-family:"trebuchet ms",verdana,arial,sans-serif;font-size:16px;}#mermaid-diagram p{margin:0;}#mermaid-diagram .entityBox{fill:#ECECFF;stroke:#9370DB;}#mermaid-diagram .attributeBoxOdd{fill:#ffffff;stroke:#9370DB;}#mermaid-diagram .attributeBoxEven{fill:#f2f2f2;stroke:#9370DB;}#mermaid-diagram .relationshipLabelBox{fill:hsl(80, 100%, 96.2745098039%);opacity:0.7;background-color:hsl(80, 100%, 96.2745098039%);}#mermaid-diagram .relationshipLabelBox rect{opacity:0.5;}#mermaid-diagram .relationshipLine{stroke:#333333;}#mermaid-diagram .entityTitleText{text-anchor:middle;font-size:18px;fill:#333;}#mermaid-diagram #MD_PARENT_START{fill:#f5f5f5!important;stroke:#333333!important;stroke-width:1;}#mermaid-diagram #MD_PARENT_END{fill:#f5f5f5!important;stroke:#333333!important;stroke-width:1;}#mermaid-diagram :root{--mermaid-font-family:"trebuchet ms",verdana,arial,sans-serif;}</style><g/><defs><marker id="MD_PARENT_START" refX="0" refY="7" markerWidth="190" markerHeight="240" orient="auto"><path d="M 18,7 L9,13 L1,7 L9,1 Z"/></marker></defs><defs><marker id="MD_PARENT_END" refX="19" refY="7" markerWidth="20" markerHeight="28" orient="auto"><path d="M 18,7 L9,13 L1,7 L9,1 Z"/></marker></defs><defs><marker id="ONLY_ONE_START" refX="0" refY="9" markerWidth="18" markerHeight="18" orient="auto"><path stroke="gray" fill="none" d="M9,0 L9,18 M15,0 L15,18"/></marker></defs><defs><marker id="ONLY_ONE_END" refX="18" refY="9" markerWidth="18" markerHeight="18" orient="auto"><path stroke="gray" fill="none" d="M3,0 L3,18 M9,0 L9,18"/></marker></defs><defs><marker id="ZERO_OR_ONE_START" refX="0" refY="9" markerWidth="30" markerHeight="18" orient="auto"><circle stroke="gray" fill="white" cx="21" cy="9" r="6"/><path stroke="gray" fill="none" d="M9,0 L9,18"/></marker></defs><defs><marker id="ZERO_OR_ONE_END" refX="30" refY="9" markerWidth="30" markerHeight="18" orient="auto"><circle stroke="gray" fill="white" cx="9" cy="9" r="6"/><path stroke="gray" fill="none" d="M21,0 L21,18"/></marker></defs><defs><marker id="ONE_OR_MORE_START" refX="18" refY="18" markerWidth="45" markerHeight="36" orient="auto"><path stroke="gray" fill="none" d="M0,18 Q 18,0 36,18 Q 18,36 0,18 M42,9 L42,27"/></marker></defs><defs><marker id="ONE_OR_MORE_END" refX="27" refY="18" markerWidth="45" markerHeight="36" orient="auto"><path stroke="gray" fill="none" d="M3,9 L3,27 M9,18 Q27,0 45,18 Q27,36 9,18"/></marker></defs><defs><marker id="ZERO_OR_MORE_START" refX="18" refY="18" markerWidth="57" markerHeight="36" orient="auto"><circle stroke="gray" fill="white" cx="48" cy="18" r="6"/><path stroke="gray" fill="none" d="M0,18 Q18,0 36,18 Q18,36 0,18"/></marker></defs><defs><marker id="ZERO_OR_MORE_END" refX="39" refY="18" markerWidth="57" markerHeight="36" orient="auto"><circle stroke="gray" fill="white" cx="9" cy="18" r="6"/><path stroke="gray" fill="none" d="M21,18 Q39,0 57,18 Q39,36 21,18"/></marker></defs><path class="er relationshipLine" d="M457.474,116.148L387.95,134.457C318.427,152.766,179.379,189.383,112.39,216.025C45.401,242.667,50.472,259.333,53.007,267.667L55.542,276" marker-end="url(#ZERO_OR_MORE_END)" marker-start="url(#ONLY_ONE_START)" style="stroke: gray; fill: none;"/><path class="er relationshipLine" d="M457.474,130.608L423.873,146.507C390.272,162.405,323.069,194.203,294.46,222.101C265.85,250,275.834,274,280.825,286L285.817,298" marker-end="url(#ZERO_OR_MORE_END)" marker-start="url(#ONLY_ONE_START)" style="stroke: gray; fill: none;"/><path class="er relationshipLine" d="M492.882,176L489.302,184.333C485.722,192.667,478.562,209.333,490.491,232.038C502.419,254.742,533.436,283.485,548.945,297.856L564.453,312.227" marker-end="url(#ZERO_OR_MORE_END)" marker-start="url(#ONLY_ONE_START)" style="stroke: gray; fill: none;"/><path class="er relationshipLine" d="M553.819,176L556.75,184.333C559.68,192.667,565.542,209.333,572.789,229.667C580.036,250,588.669,274,592.985,286L597.302,298" marker-end="url(#ZERO_OR_MORE_END)" marker-start="url(#ONLY_ONE_START)" style="stroke: gray; fill: none;"/><path class="er relationshipLine" d="M595.305,123.568L641.321,140.64C687.338,157.712,779.37,191.856,829.972,219.095C880.575,246.333,889.747,266.667,894.333,276.833L898.919,287" marker-end="url(#ZERO_OR_MORE_END)" marker-start="url(#ONLY_ONE_START)" style="stroke: gray; fill: none;"/><path class="er relationshipLine" d="M129.518,276L133.909,267.667C138.301,259.333,147.084,242.667,201.743,216.968C256.403,191.269,356.938,156.538,407.206,139.173L457.474,121.807" marker-end="url(#ONLY_ONE_END)" marker-start="url(#ZERO_OR_MORE_START)" style="stroke: gray; fill: none;"/><path class="er relationshipLine" d="M341.507,298L346.49,286C351.472,274,361.437,250,380.765,226.153C400.093,202.305,428.784,178.61,443.129,166.763L457.474,154.916" marker-end="url(#ONLY_ONE_END)" marker-start="url(#ZERO_OR_MORE_START)" style="stroke: gray; fill: none;"/><path class="er relationshipLine" d="M645.503,298L649.82,286C654.136,274,662.77,250,654.403,226.805C646.037,203.61,620.671,181.22,607.988,170.025L595.305,158.83" marker-end="url(#ONLY_ONE_END)" marker-start="url(#ZERO_OR_MORE_START)" style="stroke: gray; fill: none;"/><path class="er relationshipLine" d="M678.352,312.227L693.86,297.856C709.369,283.485,740.386,254.742,726.545,225.038C712.703,195.334,654.004,164.669,624.655,149.336L595.305,134.003" marker-end="url(#ONLY_ONE_END)" marker-start="url(#ZERO_OR_MORE_START)" style="stroke: gray; fill: none;"/><path class="er relationshipLine" d="M955.035,287L957.763,276.833C960.491,266.667,965.947,246.333,905.992,218.137C846.037,189.941,720.671,153.882,657.988,135.852L595.305,117.822" marker-end="url(#ONLY_ONE_END)" marker-start="url(#ZERO_OR_MORE_START)" style="stroke: gray; fill: none;"/><g id="entity-USERS-1e82e395-936c-57a7-8ba9-b08f03574b93" transform="translate(457.4742660522461,20 )"><rect class="er entityBox" x="0" y="0" width="137.8308868408203" height="156"/><text class="er entityLabel" id="text-entity-USERS-1e82e395-936c-57a7-8ba9-b08f03574b93" x="0" y="0" transform="translate(68.91544342041016,12)" style="dominant-baseline: middle; text-anchor: middle; font-size: 12px;">USERS</text><rect class="er attributeBoxOdd" x="0" y="24" width="52.06849670410156" height="22"/><text class="er entityLabel" id="text-entity-USERS-1e82e395-936c-57a7-8ba9-b08f03574b93-attr-1-type" x="0" y="0" transform="translate(5,35)" style="dominant-baseline: middle; font-size: 10.2px;">int</text><rect class="er attributeBoxOdd" x="52.06849670410156" y="24" width="85.76239013671875" height="22"/><text class="er entityLabel" id="text-entity-USERS-1e82e395-936c-57a7-8ba9-b08f03574b93-attr-1-name" x="0" y="0" transform="translate(57.06849670410156,35)" style="dominant-baseline: middle; font-size: 10.2px;">id</text><rect class="er attributeBoxEven" x="0" y="46" width="52.06849670410156" height="22"/><text class="er entityLabel" id="text-entity-USERS-1e82e395-936c-57a7-8ba9-b08f03574b93-attr-2-type" x="0" y="0" transform="translate(5,57)" style="dominant-baseline: middle; font-size: 10.2px;">string</text><rect class="er attributeBoxEven" x="52.06849670410156" y="46" width="85.76239013671875" height="22"/><text class="er entityLabel" id="text-entity-USERS-1e82e395-936c-57a7-8ba9-b08f03574b93-attr-2-name" x="0" y="0" transform="translate(57.06849670410156,57)" style="dominant-baseline: middle; font-size: 10.2px;">email</text><rect class="er attributeBoxOdd" x="0" y="68" width="52.06849670410156" height="22"/><text class="er entityLabel" id="text-entity-USERS-1e82e395-936c-57a7-8ba9-b08f03574b93-attr-3-type" x="0" y="0" transform="translate(5,79)" style="dominant-baseline: middle; font-size: 10.2px;">string</text><rect class="er attributeBoxOdd" x="52.06849670410156" y="68" width="85.76239013671875" height="22"/><text class="er entityLabel" id="text-entity-USERS-1e82e395-936c-57a7-8ba9-b08f03574b93-attr-3-name" x="0" y="0" transform="translate(57.06849670410156,79)" style="dominant-baseline: middle; font-size: 10.2px;">password_digest</text><rect class="er attributeBoxEven" x="0" y="90" width="52.06849670410156" height="22"/><text class="er entityLabel" id="text-entity-USERS-1e82e395-936c-57a7-8ba9-b08f03574b93-attr-4-type" x="0" y="0" transform="translate(5,101)" style="dominant-baseline: middle; font-size: 10.2px;">string</text><rect class="er attributeBoxEven" x="52.06849670410156" y="90" width="85.76239013671875" height="22"/><text class="er entityLabel" id="text-entity-USERS-1e82e395-936c-57a7-8ba9-b08f03574b93-attr-4-name" x="0" y="0" transform="translate(57.06849670410156,101)" style="dominant-baseline: middle; font-size: 10.2px;">role</text><rect class="er attributeBoxOdd" x="0" y="112" width="52.06849670410156" height="22"/><text class="er entityLabel" id="text-entity-USERS-1e82e395-936c-57a7-8ba9-b08f03574b93-attr-5-type" x="0" y="0" transform="translate(5,123)" style="dominant-baseline: middle; font-size: 10.2px;">datetime</text><rect class="er attributeBoxOdd" x="52.06849670410156" y="112" width="85.76239013671875" height="22"/><text class="er entityLabel" id="text-entity-USERS-1e82e395-936c-57a7-8ba9-b08f03574b93-attr-5-name" x="0" y="0" transform="translate(57.06849670410156,123)" style="dominant-baseline: middle; font-size: 10.2px;">created_at</text><rect class="er attributeBoxEven" x="0" y="134" width="52.06849670410156" height="22"/><text class="er entityLabel" id="text-entity-USERS-1e82e395-936c-57a7-8ba9-b08f03574b93-attr-6-type" x="0" y="0" transform="translate(5,145)" style="dominant-baseline: middle; font-size: 10.2px;">datetime</text><rect class="er attributeBoxEven" x="52.06849670410156" y="134" width="85.76239013671875" height="22"/><text class="er entityLabel" id="text-entity-USERS-1e82e395-936c-57a7-8ba9-b08f03574b93-attr-6-name" x="0" y="0" transform="translate(57.06849670410156,145)" style="dominant-baseline: middle; font-size: 10.2px;">updated_at</text></g><g id="entity-INTERNPROFILES-f2791ed2-4505-5ab4-99b2-9585f16c5d55" transform="translate(20,276 )"><rect class="er entityBox" x="0" y="0" width="125.232421875" height="178"/><text class="er entityLabel" id="text-entity-INTERNPROFILES-f2791ed2-4505-5ab4-99b2-9585f16c5d55" x="0" y="0" transform="translate(62.6162109375,12)" style="dominant-baseline: middle; text-anchor: middle; font-size: 12px;">INTERN_PROFILES</text><rect class="er attributeBoxOdd" x="0" y="24" width="58.183067321777344" height="22"/><text class="er entityLabel" id="text-entity-INTERNPROFILES-f2791ed2-4505-5ab4-99b2-9585f16c5d55-attr-1-type" x="0" y="0" transform="translate(5,35)" style="dominant-baseline: middle; font-size: 10.2px;">int</text><rect class="er attributeBoxOdd" x="58.183067321777344" y="24" width="67.04935455322266" height="22"/><text class="er entityLabel" id="text-entity-INTERNPROFILES-f2791ed2-4505-5ab4-99b2-9585f16c5d55-attr-1-name" x="0" y="0" transform="translate(63.183067321777344,35)" style="dominant-baseline: middle; font-size: 10.2px;">id</text><rect class="er attributeBoxEven" x="0" y="46" width="58.183067321777344" height="22"/><text class="er entityLabel" id="text-entity-INTERNPROFILES-f2791ed2-4505-5ab4-99b2-9585f16c5d55-attr-2-type" x="0" y="0" transform="translate(5,57)" style="dominant-baseline: middle; font-size: 10.2px;">int</text><rect class="er attributeBoxEven" x="58.183067321777344" y="46" width="67.04935455322266" height="22"/><text class="er entityLabel" id="text-entity-INTERNPROFILES-f2791ed2-4505-5ab4-99b2-9585f16c5d55-attr-2-name" x="0" y="0" transform="translate(63.183067321777344,57)" style="dominant-baseline: middle; font-size: 10.2px;">user_id</text><rect class="er attributeBoxOdd" x="0" y="68" width="58.183067321777344" height="22"/><text class="er entityLabel" id="text-entity-INTERNPROFILES-f2791ed2-4505-5ab4-99b2-9585f16c5d55-attr-3-type" x="0" y="0" transform="translate(5,79)" style="dominant-baseline: middle; font-size: 10.2px;">string</text><rect class="er attributeBoxOdd" x="58.183067321777344" y="68" width="67.04935455322266" height="22"/><text class="er entityLabel" id="text-entity-INTERNPROFILES-f2791ed2-4505-5ab4-99b2-9585f16c5d55-attr-3-name" x="0" y="0" transform="translate(63.183067321777344,79)" style="dominant-baseline: middle; font-size: 10.2px;">name</text><rect class="er attributeBoxEven" x="0" y="90" width="58.183067321777344" height="22"/><text class="er entityLabel" id="text-entity-INTERNPROFILES-f2791ed2-4505-5ab4-99b2-9585f16c5d55-attr-4-type" x="0" y="0" transform="translate(5,101)" style="dominant-baseline: middle; font-size: 10.2px;">string</text><rect class="er attributeBoxEven" x="58.183067321777344" y="90" width="67.04935455322266" height="22"/><text class="er entityLabel" id="text-entity-INTERNPROFILES-f2791ed2-4505-5ab4-99b2-9585f16c5d55-attr-4-name" x="0" y="0" transform="translate(63.183067321777344,101)" style="dominant-baseline: middle; font-size: 10.2px;">university</text><rect class="er attributeBoxOdd" x="0" y="112" width="58.183067321777344" height="22"/><text class="er entityLabel" id="text-entity-INTERNPROFILES-f2791ed2-4505-5ab4-99b2-9585f16c5d55-attr-5-type" x="0" y="0" transform="translate(5,123)" style="dominant-baseline: middle; font-size: 10.2px;">string</text><rect class="er attributeBoxOdd" x="58.183067321777344" y="112" width="67.04935455322266" height="22"/><text class="er entityLabel" id="text-entity-INTERNPROFILES-f2791ed2-4505-5ab4-99b2-9585f16c5d55-attr-5-name" x="0" y="0" transform="translate(63.183067321777344,123)" style="dominant-baseline: middle; font-size: 10.2px;">grade</text><rect class="er attributeBoxEven" x="0" y="134" width="58.183067321777344" height="22"/><text class="er entityLabel" id="text-entity-INTERNPROFILES-f2791ed2-4505-5ab4-99b2-9585f16c5d55-attr-6-type" x="0" y="0" transform="translate(5,145)" style="dominant-baseline: middle; font-size: 10.2px;">text</text><rect class="er attributeBoxEven" x="58.183067321777344" y="134" width="67.04935455322266" height="22"/><text class="er entityLabel" id="text-entity-INTERNPROFILES-f2791ed2-4505-5ab4-99b2-9585f16c5d55-attr-6-name" x="0" y="0" transform="translate(63.183067321777344,145)" style="dominant-baseline: middle; font-size: 10.2px;">skills</text><rect class="er attributeBoxOdd" x="0" y="156" width="58.183067321777344" height="22"/><text class="er entityLabel" id="text-entity-INTERNPROFILES-f2791ed2-4505-5ab4-99b2-9585f16c5d55-attr-7-type" x="0" y="0" transform="translate(5,167)" style="dominant-baseline: middle; font-size: 10.2px;">datetime</text><rect class="er attributeBoxOdd" x="58.183067321777344" y="156" width="67.04935455322266" height="22"/><text class="er entityLabel" id="text-entity-INTERNPROFILES-f2791ed2-4505-5ab4-99b2-9585f16c5d55-attr-7-name" x="0" y="0" transform="translate(63.183067321777344,167)" style="dominant-baseline: middle; font-size: 10.2px;">created_at</text></g><g id="entity-COMPANYPROFILES-b0bf1c59-48f6-54e5-b35a-1d4d2d69c3a1" transform="translate(245.232421875,298 )"><rect class="er entityBox" x="0" y="0" width="136.91015625" height="134"/><text class="er entityLabel" id="text-entity-COMPANYPROFILES-b0bf1c59-48f6-54e5-b35a-1d4d2d69c3a1" x="0" y="0" transform="translate(68.455078125,12)" style="dominant-baseline: middle; text-anchor: middle; font-size: 12px;">COMPANY_PROFILES</text><rect class="er attributeBoxOdd" x="0" y="24" width="53.79756164550781" height="22"/><text class="er entityLabel" id="text-entity-COMPANYPROFILES-b0bf1c59-48f6-54e5-b35a-1d4d2d69c3a1-attr-1-type" x="0" y="0" transform="translate(5,35)" style="dominant-baseline: middle; font-size: 10.2px;">int</text><rect class="er attributeBoxOdd" x="53.79756164550781" y="24" width="83.11259460449219" height="22"/><text class="er entityLabel" id="text-entity-COMPANYPROFILES-b0bf1c59-48f6-54e5-b35a-1d4d2d69c3a1-attr-1-name" x="0" y="0" transform="translate(58.79756164550781,35)" style="dominant-baseline: middle; font-size: 10.2px;">id</text><rect class="er attributeBoxEven" x="0" y="46" width="53.79756164550781" height="22"/><text class="er entityLabel" id="text-entity-COMPANYPROFILES-b0bf1c59-48f6-54e5-b35a-1d4d2d69c3a1-attr-2-type" x="0" y="0" transform="translate(5,57)" style="dominant-baseline: middle; font-size: 10.2px;">int</text><rect class="er attributeBoxEven" x="53.79756164550781" y="46" width="83.11259460449219" height="22"/><text class="er entityLabel" id="text-entity-COMPANYPROFILES-b0bf1c59-48f6-54e5-b35a-1d4d2d69c3a1-attr-2-name" x="0" y="0" transform="translate(58.79756164550781,57)" style="dominant-baseline: middle; font-size: 10.2px;">user_id</text><rect class="er attributeBoxOdd" x="0" y="68" width="53.79756164550781" height="22"/><text class="er entityLabel" id="text-entity-COMPANYPROFILES-b0bf1c59-48f6-54e5-b35a-1d4d2d69c3a1-attr-3-type" x="0" y="0" transform="translate(5,79)" style="dominant-baseline: middle; font-size: 10.2px;">string</text><rect class="er attributeBoxOdd" x="53.79756164550781" y="68" width="83.11259460449219" height="22"/><text class="er entityLabel" id="text-entity-COMPANYPROFILES-b0bf1c59-48f6-54e5-b35a-1d4d2d69c3a1-attr-3-name" x="0" y="0" transform="translate(58.79756164550781,79)" style="dominant-baseline: middle; font-size: 10.2px;">company_name</text><rect class="er attributeBoxEven" x="0" y="90" width="53.79756164550781" height="22"/><text class="er entityLabel" id="text-entity-COMPANYPROFILES-b0bf1c59-48f6-54e5-b35a-1d4d2d69c3a1-attr-4-type" x="0" y="0" transform="translate(5,101)" style="dominant-baseline: middle; font-size: 10.2px;">text</text><rect class="er attributeBoxEven" x="53.79756164550781" y="90" width="83.11259460449219" height="22"/><text class="er entityLabel" id="text-entity-COMPANYPROFILES-b0bf1c59-48f6-54e5-b35a-1d4d2d69c3a1-attr-4-name" x="0" y="0" transform="translate(58.79756164550781,101)" style="dominant-baseline: middle; font-size: 10.2px;">description</text><rect class="er attributeBoxOdd" x="0" y="112" width="53.79756164550781" height="22"/><text class="er entityLabel" id="text-entity-COMPANYPROFILES-b0bf1c59-48f6-54e5-b35a-1d4d2d69c3a1-attr-5-type" x="0" y="0" transform="translate(5,123)" style="dominant-baseline: middle; font-size: 10.2px;">datetime</text><rect class="er attributeBoxOdd" x="53.79756164550781" y="112" width="83.11259460449219" height="22"/><text class="er entityLabel" id="text-entity-COMPANYPROFILES-b0bf1c59-48f6-54e5-b35a-1d4d2d69c3a1-attr-5-name" x="0" y="0" transform="translate(58.79756164550781,123)" style="dominant-baseline: middle; font-size: 10.2px;">created_at</text></g><g id="entity-MESSAGES-ffc947f9-4832-5a22-9c17-5f4deb6e3ada" transform="translate(564.453254699707,298 )"><rect class="er entityBox" x="0" y="0" width="113.898681640625" height="134"/><text class="er entityLabel" id="text-entity-MESSAGES-ffc947f9-4832-5a22-9c17-5f4deb6e3ada" x="0" y="0" transform="translate(56.9493408203125,12)" style="dominant-baseline: middle; text-anchor: middle; font-size: 12px;">MESSAGES</text><rect class="er attributeBoxOdd" x="0" y="24" width="52.06849670410156" height="22"/><text class="er entityLabel" id="text-entity-MESSAGES-ffc947f9-4832-5a22-9c17-5f4deb6e3ada-attr-1-type" x="0" y="0" transform="translate(5,35)" style="dominant-baseline: middle; font-size: 10.2px;">int</text><rect class="er attributeBoxOdd" x="52.06849670410156" y="24" width="61.83018493652344" height="22"/><text class="er entityLabel" id="text-entity-MESSAGES-ffc947f9-4832-5a22-9c17-5f4deb6e3ada-attr-1-name" x="0" y="0" transform="translate(57.06849670410156,35)" style="dominant-baseline: middle; font-size: 10.2px;">id</text><rect class="er attributeBoxEven" x="0" y="46" width="52.06849670410156" height="22"/><text class="er entityLabel" id="text-entity-MESSAGES-ffc947f9-4832-5a22-9c17-5f4deb6e3ada-attr-2-type" x="0" y="0" transform="translate(5,57)" style="dominant-baseline: middle; font-size: 10.2px;">int</text><rect class="er attributeBoxEven" x="52.06849670410156" y="46" width="61.83018493652344" height="22"/><text class="er entityLabel" id="text-entity-MESSAGES-ffc947f9-4832-5a22-9c17-5f4deb6e3ada-attr-2-name" x="0" y="0" transform="translate(57.06849670410156,57)" style="dominant-baseline: middle; font-size: 10.2px;">sender_id</text><rect class="er attributeBoxOdd" x="0" y="68" width="52.06849670410156" height="22"/><text class="er entityLabel" id="text-entity-MESSAGES-ffc947f9-4832-5a22-9c17-5f4deb6e3ada-attr-3-type" x="0" y="0" transform="translate(5,79)" style="dominant-baseline: middle; font-size: 10.2px;">int</text><rect class="er attributeBoxOdd" x="52.06849670410156" y="68" width="61.83018493652344" height="22"/><text class="er entityLabel" id="text-entity-MESSAGES-ffc947f9-4832-5a22-9c17-5f4deb6e3ada-attr-3-name" x="0" y="0" transform="translate(57.06849670410156,79)" style="dominant-baseline: middle; font-size: 10.2px;">receiver_id</text><rect class="er attributeBoxEven" x="0" y="90" width="52.06849670410156" height="22"/><text class="er entityLabel" id="text-entity-MESSAGES-ffc947f9-4832-5a22-9c17-5f4deb6e3ada-attr-4-type" x="0" y="0" transform="translate(5,101)" style="dominant-baseline: middle; font-size: 10.2px;">text</text><rect class="er attributeBoxEven" x="52.06849670410156" y="90" width="61.83018493652344" height="22"/><text class="er entityLabel" id="text-entity-MESSAGES-ffc947f9-4832-5a22-9c17-5f4deb6e3ada-attr-4-name" x="0" y="0" transform="translate(57.06849670410156,101)" style="dominant-baseline: middle; font-size: 10.2px;">content</text><rect class="er attributeBoxOdd" x="0" y="112" width="52.06849670410156" height="22"/><text class="er entityLabel" id="text-entity-MESSAGES-ffc947f9-4832-5a22-9c17-5f4deb6e3ada-attr-5-type" x="0" y="0" transform="translate(5,123)" style="dominant-baseline: middle; font-size: 10.2px;">datetime</text><rect class="er attributeBoxOdd" x="52.06849670410156" y="112" width="61.83018493652344" height="22"/><text class="er entityLabel" id="text-entity-MESSAGES-ffc947f9-4832-5a22-9c17-5f4deb6e3ada-attr-5-name" x="0" y="0" transform="translate(57.06849670410156,123)" style="dominant-baseline: middle; font-size: 10.2px;">created_at</text></g><g id="entity-INTERNSHIPS-40b65ed1-a031-5bab-ae0c-c9c569c0da71" transform="translate(875.6239547729492,287 )"><rect class="er entityBox" x="0" y="0" width="116.96170043945312" height="156"/><text class="er entityLabel" id="text-entity-INTERNSHIPS-40b65ed1-a031-5bab-ae0c-c9c569c0da71" x="0" y="0" transform="translate(58.48085021972656,12)" style="dominant-baseline: middle; text-anchor: middle; font-size: 12px;">INTERNSHIPS</text><rect class="er attributeBoxOdd" x="0" y="24" width="52.06849670410156" height="22"/><text class="er entityLabel" id="text-entity-INTERNSHIPS-40b65ed1-a031-5bab-ae0c-c9c569c0da71-attr-1-type" x="0" y="0" transform="translate(5,35)" style="dominant-baseline: middle; font-size: 10.2px;">int</text><rect class="er attributeBoxOdd" x="52.06849670410156" y="24" width="64.89320373535156" height="22"/><text class="er entityLabel" id="text-entity-INTERNSHIPS-40b65ed1-a031-5bab-ae0c-c9c569c0da71-attr-1-name" x="0" y="0" transform="translate(57.06849670410156,35)" style="dominant-baseline: middle; font-size: 10.2px;">id</text><rect class="er attributeBoxEven" x="0" y="46" width="52.06849670410156" height="22"/><text class="er entityLabel" id="text-entity-INTERNSHIPS-40b65ed1-a031-5bab-ae0c-c9c569c0da71-attr-2-type" x="0" y="0" transform="translate(5,57)" style="dominant-baseline: middle; font-size: 10.2px;">int</text><rect class="er attributeBoxEven" x="52.06849670410156" y="46" width="64.89320373535156" height="22"/><text class="er entityLabel" id="text-entity-INTERNSHIPS-40b65ed1-a031-5bab-ae0c-c9c569c0da71-attr-2-name" x="0" y="0" transform="translate(57.06849670410156,57)" style="dominant-baseline: middle; font-size: 10.2px;">company_id</text><rect class="er attributeBoxOdd" x="0" y="68" width="52.06849670410156" height="22"/><text class="er entityLabel" id="text-entity-INTERNSHIPS-40b65ed1-a031-5bab-ae0c-c9c569c0da71-attr-3-type" x="0" y="0" transform="translate(5,79)" style="dominant-baseline: middle; font-size: 10.2px;">string</text><rect class="er attributeBoxOdd" x="52.06849670410156" y="68" width="64.89320373535156" height="22"/><text class="er entityLabel" id="text-entity-INTERNSHIPS-40b65ed1-a031-5bab-ae0c-c9c569c0da71-attr-3-name" x="0" y="0" transform="translate(57.06849670410156,79)" style="dominant-baseline: middle; font-size: 10.2px;">title</text><rect class="er attributeBoxEven" x="0" y="90" width="52.06849670410156" height="22"/><text class="er entityLabel" id="text-entity-INTERNSHIPS-40b65ed1-a031-5bab-ae0c-c9c569c0da71-attr-4-type" x="0" y="0" transform="translate(5,101)" style="dominant-baseline: middle; font-size: 10.2px;">text</text><rect class="er attributeBoxEven" x="52.06849670410156" y="90" width="64.89320373535156" height="22"/><text class="er entityLabel" id="text-entity-INTERNSHIPS-40b65ed1-a031-5bab-ae0c-c9c569c0da71-attr-4-name" x="0" y="0" transform="translate(57.06849670410156,101)" style="dominant-baseline: middle; font-size: 10.2px;">description</text><rect class="er attributeBoxOdd" x="0" y="112" width="52.06849670410156" height="22"/><text class="er entityLabel" id="text-entity-INTERNSHIPS-40b65ed1-a031-5bab-ae0c-c9c569c0da71-attr-5-type" x="0" y="0" transform="translate(5,123)" style="dominant-baseline: middle; font-size: 10.2px;">string</text><rect class="er attributeBoxOdd" x="52.06849670410156" y="112" width="64.89320373535156" height="22"/><text class="er entityLabel" id="text-entity-INTERNSHIPS-40b65ed1-a031-5bab-ae0c-c9c569c0da71-attr-5-name" x="0" y="0" transform="translate(57.06849670410156,123)" style="dominant-baseline: middle; font-size: 10.2px;">period</text><rect class="er attributeBoxEven" x="0" y="134" width="52.06849670410156" height="22"/><text class="er entityLabel" id="text-entity-INTERNSHIPS-40b65ed1-a031-5bab-ae0c-c9c569c0da71-attr-6-type" x="0" y="0" transform="translate(5,145)" style="dominant-baseline: middle; font-size: 10.2px;">datetime</text><rect class="er attributeBoxEven" x="52.06849670410156" y="134" width="64.89320373535156" height="22"/><text class="er entityLabel" id="text-entity-INTERNSHIPS-40b65ed1-a031-5bab-ae0c-c9c569c0da71-attr-6-name" x="0" y="0" transform="translate(57.06849670410156,145)" style="dominant-baseline: middle; font-size: 10.2px;">created_at</text></g><rect class="er relationshipLabelBox" x="229.56044006347656" y="168.19166564941406" width="17.861328125" height="14"/><text class="er relationshipLabel" id="rel1" x="238.49110412597656" y="175.19166564941406" style="text-anchor: middle; dominant-baseline: middle; font-size: 12px;">has</text><rect class="er relationshipLabelBox" x="327.5915832519531" y="184.66204833984375" width="17.861328125" height="14"/><text class="er relationshipLabel" id="rel2" x="336.5222473144531" y="191.66204833984375" style="text-anchor: middle; dominant-baseline: middle; font-size: 12px;">has</text><rect class="er relationshipLabelBox" x="490.09002685546875" y="245.90310668945312" width="29.64453125" height="14"/><text class="er relationshipLabel" id="rel3" x="504.91229248046875" y="252.90310668945312" style="text-anchor: middle; dominant-baseline: middle; font-size: 12px;">sends</text><rect class="er relationshipLabelBox" x="553.15625" y="230.0479736328125" width="44.5390625" height="14"/><text class="er relationshipLabel" id="rel4" x="575.42578125" y="237.0479736328125" style="text-anchor: middle; dominant-baseline: middle; font-size: 12px;">receives</text><rect class="er relationshipLabelBox" x="746.1154174804688" y="179.72219848632812" width="27.740234375" height="14"/><text class="er relationshipLabel" id="rel5" x="759.9855346679688" y="186.72219848632812" style="text-anchor: middle; dominant-baseline: middle; font-size: 12px;">posts</text><rect class="er relationshipLabelBox" x="254.43890380859375" y="176.2627716064453" width="58.697265625" height="14"/><text class="er relationshipLabel" id="rel6" x="283.78753662109375" y="183.2627716064453" style="text-anchor: middle; dominant-baseline: middle; font-size: 12px;">belongs_to</text><rect class="er relationshipLabelBox" x="358.77642822265625" y="210.5521240234375" width="58.697265625" height="14"/><text class="er relationshipLabel" id="rel7" x="388.12506103515625" y="217.5521240234375" style="text-anchor: middle; dominant-baseline: middle; font-size: 12px;">belongs_to</text><rect class="er relationshipLabelBox" x="632.2554931640625" y="211.77963256835938" width="37.189453125" height="14"/><text class="er relationshipLabel" id="rel8" x="650.8502197265625" y="218.77963256835938" style="text-anchor: middle; dominant-baseline: middle; font-size: 12px;">sender</text><rect class="er relationshipLabelBox" x="686.9290161132812" y="196.56527709960938" width="45.5390625" height="14"/><text class="er relationshipLabel" id="rel9" x="709.6985473632812" y="203.56527709960938" style="text-anchor: middle; dominant-baseline: middle; font-size: 12px;">receiver</text><rect class="er relationshipLabelBox" x="773.4580688476562" y="170.9519500732422" width="48.888671875" height="14"/><text class="er relationshipLabel" id="rel10" x="797.9024047851562" y="177.9519500732422" style="text-anchor: middle; dominant-baseline: middle; font-size: 12px;">company</text></svg>